<svg xmlns="http://www.w3.org/2000/svg" aria-hidden="true" >
  <defs>

  <!-- contact icons -->
  <symbol id="icon-phone" viewBox="0 0 32 32">
      <path d="M16 0h.002c8.837 0 16 7.163 16 16s-7.163 16-16 16-16-7.163-16-16A15.95 15.95 0 0 1 4.687 4.687 15.912 15.912 0 0 1 15.986-.001H16h-.001zm-3.292 14.701c.519.96 1.117 1.787 1.806 2.528l-.007-.007a10.248 10.248 0 0 0 2.791 2.077l.058.027a.295.295 0 0 0 .247.012l-.002.001c.136-.064.25-.152.343-.259l.001-.001c.108-.116.21-.24.305-.371l.008-.011c.456-.602 1.026-1.349 1.823-.977l.047.026 2.698 1.552c.307.223.504.58.504.983 0 .021 0 .041-.002.061v-.003c-.02.492-.163.946-.398 1.338l.007-.013a2.727 2.727 0 0 1-1.266 1.126l-.018.007a5.63 5.63 0 0 1-1.554.429l-.029.003a5.361 5.361 0 0 1-2.457-.214l.038.011a10.544 10.544 0 0 1-2.472-1.199l.039.024-.063-.039a21.25 21.25 0 0 1-1.242-.823 15.664 15.664 0 0 1-4.07-4.585l-.04-.074c-.854-1.544-1.32-3.211-1.065-4.802A3.433 3.433 0 0 1 9.89 9.347l.004-.003a3.103 3.103 0 0 1 2.36-.617l-.017-.002a.334.334 0 0 1 .26.17l.001.002 1.711 2.893a.905.905 0 0 1 .141.977l.002-.006a1.92 1.92 0 0 1-.649.725l-.007.004c-.091.081-.201.159-.315.242-.383.279-.818.599-.669.977zm13.058-8.467a13.758 13.758 0 0 0-9.755-4.038c-7.623 0-13.802 6.179-13.802 13.802S8.388 29.8 16.011 29.8c7.622 0 13.801-6.178 13.802-13.8v-.017a13.72 13.72 0 0 0-4.047-9.748z"/>
    </symbol>
    <symbol id="icon-email" viewBox="0 0 32 32">
      <path d="M16 0h.005C24.844 0 32.01 7.166 32.01 16.005S24.844 32.01 16.005 32.01C7.166 32.01 0 24.844 0 16.005c0-4.42 1.792-8.421 4.688-11.318a15.89 15.89 0 0 1 11.29-4.688h.024-.001zM8.391 20.674l5.177-5.19-5.177-4.221v9.411zm5.747-4.726L8.799 21.3h14.354l-5.099-5.352-1.682 1.435a.368.368 0 0 1-.469 0h.001l-1.766-1.44zm4.474-.474 4.997 5.242v-9.5l-4.997 4.258zm-9.758-4.773 7.266 5.927 6.966-5.927zm17.031-4.594a13.944 13.944 0 0 0-9.891-4.096c-7.726 0-13.99 6.263-13.99 13.99s6.263 13.99 13.99 13.99c7.725 0 13.988-6.262 13.99-13.987v-.019c0-3.858-1.567-7.351-4.099-9.876z"/>
    </symbol>
    <symbol id="icon-github" viewBox="0 0 32 32">
      <path d="M15.999.399C7.164.399 0 7.562 0 16.398c0 7.07 4.584 13.065 10.941 15.181.8.148 1.094-.348 1.094-.771 0-.381-.016-1.642-.022-2.978-4.452.968-5.39-1.889-5.39-1.889-.728-1.85-1.776-2.342-1.776-2.342-1.452-.994.11-.972.11-.972 1.606.112 2.452 1.648 2.452 1.648 1.428 2.446 3.744 1.738 4.657 1.33.144-1.034.557-1.74 1.016-2.14-3.554-.403-7.29-1.776-7.29-7.907 0-1.746.626-3.174 1.648-4.294-.167-.404-.715-2.03.154-4.234 0 0 1.344-.431 4.401 1.64a15.343 15.343 0 0 1 4.003-.538 15.38 15.38 0 0 1 4.008.538c3.054-2.069 4.396-1.64 4.396-1.64.87 2.204.324 3.832.158 4.234 1.026 1.12 1.646 2.548 1.646 4.294 0 6.145-3.744 7.497-7.306 7.893.574.496 1.087 1.47 1.087 2.962 0 2.14-.018 3.864-.018 4.39 0 .426.288.924 1.1.768 6.354-2.118 10.932-8.114 10.932-15.179 0-8.835-7.163-15.999-16-15.999L16 .398z"/>
    </symbol>
    <symbol id="icon-linkedin" viewBox="0 0 32 32">
      <path d="M14.065 13h3.091v1.584h.048c.432-.778 1.488-1.584 3.053-1.584 3.264 0 3.869 2.035 3.869 4.685v5.386H20.9V18.29c0-1.143-.019-2.602-1.68-2.602-1.68 0-1.939 1.239-1.939 2.525v4.858h-3.226V13zm1.94-13c4.416 0 8.42 1.795 11.32 4.685a15.943 15.943 0 0 1 4.685 11.32c0 4.416-1.795 8.42-4.685 11.32a15.94 15.94 0 0 1-11.32 4.685c-4.416 0-8.42-1.795-11.32-4.685A15.936 15.936 0 0 1 0 16.005c0-4.416 1.795-8.42 4.685-11.32A15.936 15.936 0 0 1 16.005 0zm10.494 5.501c-2.688-2.688-6.394-4.349-10.494-4.349S8.19 2.813 5.511 5.501c-2.688 2.688-4.349 6.394-4.349 10.494s1.661 7.815 4.349 10.494c2.688 2.688 6.394 4.349 10.494 4.349s7.815-1.661 10.494-4.349c2.688-2.688 4.349-6.394 4.349-10.494S29.187 8.18 26.499 5.501zm-14.671 4.705c0 .931-.749 1.68-1.68 1.68s-1.68-.749-1.68-1.68.749-1.68 1.68-1.68 1.68.749 1.68 1.68zM8.468 13h3.36v10.071h-3.36V13z"/>
    </symbol>
    <symbol id="icon-home" viewBox="0 0 32 32">
      <path d="M16 0C7.164 0 0 7.164 0 16s7.164 16 16 16 16-7.164 16-16S24.836 0 16 0zm0 7.552-8.172 8.005 1.992 1.047 6.125-6.43 6.229 6.432 1.995-1.047L16 7.551zm-5.742 9.93 5.75-5.753 5.734 5.753v5.643h-4.19v-3.984h-3.141v3.984h-4.154v-5.643zM16 2.367c7.529 0 13.633 6.104 13.633 13.633S23.529 29.633 16 29.633 2.367 23.529 2.367 16C2.367 8.471 8.471 2.367 16 2.367z"/>
    </symbol>
    
    
  </defs>
</svg>